HIERARCHY
ROOT Hips
{
    OFFSET 0.000000 0.000000 0.000000
    CHANNELS 6 Xposition Yposition Zposition Zrotation Xrotation Yrotation
    JOINT Spine
    {
        OFFSET -0.000000 7.858286 0.000000
        CHANNELS 3 Zrotation Xrotation Yrotation
        JOINT Spine1
        {
            OFFSET -0.000000 25.138355 0.000000
            CHANNELS 3 Zrotation Xrotation Yrotation
            JOINT Neck
            {
                OFFSET -0.000000 25.035116 2.275919
                CHANNELS 3 Zrotation Xrotation Yrotation
                JOINT Head
                {
                    OFFSET -0.000000 13.416585 -1.916655
                    CHANNELS 3 Zrotation Xrotation Yrotation
                    End Site
                    {
                        OFFSET -0.000000 23.958189 0.000000
                    }
                }
            }
            JOINT LeftShoulder
            {
                OFFSET 3.815342 24.034578 -0.234509
                CHANNELS 3 Zrotation Xrotation Yrotation
                JOINT LeftArm
                {
                    OFFSET 8.622727 0.000000 0.000000
                    CHANNELS 3 Zrotation Xrotation Yrotation
                    JOINT LeftForeArm
                    {
                        OFFSET 31.706440 0.000000 0.000000
                        CHANNELS 3 Zrotation Xrotation Yrotation
                        JOINT LeftHand
                        {
                            OFFSET 23.773136 0.000000 0.000000
                            CHANNELS 3 Zrotation Xrotation Yrotation
                            End Site
                            {
                                OFFSET 14.374913 0.000000 0.000000
                            }
                        }
                    }
                }
            }
            JOINT RightShoulder
            {
                OFFSET -3.836082 24.034578 -0.234509
                CHANNELS 3 Zrotation Xrotation Yrotation
                JOINT RightArm
                {
                    OFFSET -8.622727 0.000000 0.000000
                    CHANNELS 3 Zrotation Xrotation Yrotation
                    JOINT RightForeArm
                    {
                        OFFSET -31.706440 0.000000 0.000000
                        CHANNELS 3 Zrotation Xrotation Yrotation
                        JOINT RightHand
                        {
                            OFFSET -23.773136 0.000000 0.000000
                            CHANNELS 3 Zrotation Xrotation Yrotation
                            End Site
                            {
                                OFFSET -14.374913 0.000000 0.000000
                            }
                        }
                    }
                }
            }
        }
    }
    JOINT LeftUpLeg
    {
        OFFSET 9.583276 0.000000 0.000000
        CHANNELS 3 Zrotation Xrotation Yrotation
        JOINT LeftLeg
        {
            OFFSET -0.000000 -36.453522 0.000000
            CHANNELS 3 Zrotation Xrotation Yrotation
            JOINT LeftFoot
            {
                OFFSET -0.000000 -41.465855 0.000000
                CHANNELS 3 Zrotation Xrotation Yrotation
                JOINT LeftToeBase
                {
                    OFFSET -0.000000 -6.229129 14.374913
                    CHANNELS 3 Zrotation Xrotation Yrotation
                    End Site
                    {
                        OFFSET -0.000000 0.000000 3.833310
                    }
                }
            }
        }
    }
    JOINT RightUpLeg
    {
        OFFSET -9.583276 0.000000 0.000000
        CHANNELS 3 Zrotation Xrotation Yrotation
        JOINT RightLeg
        {
            OFFSET -0.000000 -36.453522 0.000000
            CHANNELS 3 Zrotation Xrotation Yrotation
            JOINT RightFoot
            {
                OFFSET -0.000000 -41.465855 0.000000
                CHANNELS 3 Zrotation Xrotation Yrotation
                JOINT RightToeBase
                {
                    OFFSET -0.000000 -6.229129 14.374913
                    CHANNELS 3 Zrotation Xrotation Yrotation
                    End Site
                    {
                        OFFSET -0.000000 0.000000 3.833310
                    }
                }
            }
        }
    }
}
MOTION
Frames:    14
Frame Time:    0.004000
-5.051740    78.244003    -146.925659    2.395742    2.701485    -2.616009    -1.618244    -11.174874    0.300160    -0.666635    10.777484    0.521387    -2.225333    36.155769    -3.322488    -2.042364    12.234543    -3.979686    -21.028204    27.610523    4.099540    -21.434011    30.397551    -38.655754    -3.301819    -11.616078    -24.381622    11.457521    -12.900555    -5.985785    18.601192    35.173710    3.283069    7.477675    42.904804    41.566284    -4.712986    -26.600845    21.685556    -9.849633    -25.405745    -4.946333    0.187565    -25.632227    -1.628504    -7.760629    17.314693    1.422991    4.041844    -4.216149    6.419274    0.000000    0.000000    0.000000    -4.695240    13.360747    2.119962    4.255379    18.008400    1.875557    5.159050    -9.149704    -3.983878    0.000000    0.000000    0.000000    
-5.006038    78.278427    -146.463989    2.389232    2.732187    -2.673678    -1.630178    -11.248863    0.331391    -0.729783    10.772147    0.560795    -2.246839    36.152569    -3.281209    -2.010745    12.263937    -3.939305    -21.136379    27.648693    4.167383    -21.400679    30.516294    -38.663544    -3.337066    -11.523140    -24.401268    11.714272    -12.822236    -5.915511    18.608435    35.193596    3.345433    7.522244    43.010448    41.547230    -4.688521    -26.731510    21.579716    -9.388447    -25.579023    -4.745804    0.107104    -25.572691    -1.784765    -7.774600    17.770058    1.465543    4.694374    -4.613685    6.275031    0.000000    0.000000    0.000000    -4.741501    13.000582    2.058902    4.237696    18.971132    1.725048    5.200988    -8.499413    -3.749181    0.000000    0.000000    0.000000    
-4.954285    78.313942    -145.971008    2.436093    2.636210    -2.814440    -1.679841    -11.235976    0.409608    -0.809386    10.815427    0.651510    -2.208285    36.145794    -3.301147    -2.052493    12.254580    -3.953831    -21.222963    27.737099    4.206870    -21.371269    30.605686    -38.696171    -3.334685    -11.517062    -24.374746    11.849490    -12.827909    -5.975935    18.640888    35.260986    3.365501    7.620161    42.941307    41.508797    -4.557348    -26.622789    21.560268    -9.909386    -25.444994    -5.101927    0.010277    -25.308418    -1.825455    -7.786381    18.106699    1.486754    5.007164    -4.898744    6.271389    0.000000    0.000000    0.000000    -4.890974    12.767542    2.160097    4.239331    19.978067    1.737539    5.169572    -7.895986    -3.650768    0.000000    0.000000    0.000000    
-4.879002    78.372978    -145.451859    2.528383    2.444275    -2.966182    -1.746236    -11.177548    0.489453    -0.917945    10.899419    0.747851    -2.195578    36.183971    -3.283352    -2.083598    12.242173    -3.935016    -21.301220    27.792704    4.218667    -21.412254    30.659714    -38.642139    -3.349055    -11.461787    -24.368740    11.896441    -12.789034    -6.082464    18.641052    35.369938    3.415554    7.659880    42.899075    41.518829    -4.500127    -26.622059    21.431656    -9.679592    -25.476379    -4.994350    -0.187678    -24.879192    -1.990617    -7.751801    18.303495    1.701490    5.365252    -5.176584    6.263952    0.000000    0.000000    0.000000    -5.101982    12.599253    2.107586    4.175597    20.988325    1.688430    5.075788    -7.084321    -3.367123    0.000000    0.000000    0.000000    
-4.819711    78.414948    -144.974838    2.576047    2.325457    -3.052919    -1.803426    -11.104867    0.548363    -0.973303    10.922742    0.816642    -2.230362    36.160393    -3.269426    -2.073723    12.266483    -3.926113    -21.424341    27.791323    4.221697    -21.069786    31.167931    -38.785538    -3.191423    -11.764030    -24.263655    11.995968    -13.055901    -6.054075    18.658867    35.392212    3.448424    7.485775    43.161518    41.606293    -4.475865    -26.865343    21.403913    -9.343861    -25.746052    -4.918947    -0.314681    -24.595266    -2.160569    -7.757764    18.547512    1.824966    5.278772    -5.439177    6.443954    0.000000    0.000000    0.000000    -5.230769    12.251364    1.850464    4.060684    22.159389    1.833808    4.876874    -6.244572    -3.130804    0.000000    0.000000    0.000000    
-4.769643    78.466454    -144.514847    2.615780    2.284787    -3.110607    -1.885993    -11.092062    0.591931    -0.997049    10.922135    0.870353    -2.193025    36.090340    -3.277816    -2.132820    12.393684    -3.925411    -21.515417    27.734964    4.180805    -21.436365    30.957071    -38.468967    -3.348126    -11.549942    -24.248459    12.140582    -12.898434    -6.204385    18.706095    35.411152    3.392533    7.681626    42.978268    41.545872    -4.285712    -26.679756    21.288103    -9.362058    -25.594511    -4.918151    -0.434132    -24.397696    -2.394569    -7.773465    18.764696    1.939165    5.110889    -5.572602    6.740302    0.000000    0.000000    0.000000    -5.299537    11.844975    1.806991    3.961514    23.238205    1.543726    4.324145    -5.281317    -2.611094    0.000000    0.000000    0.000000    
-4.718375    78.520012    -144.030945    2.648752    2.167495    -3.156671    -1.941037    -11.031642    0.629242    -1.071686    10.943780    0.919294    -2.169025    36.194927    -3.302970    -2.127994    12.273759    -3.951360    -21.563583    27.845276    4.198294    -21.404648    31.031546    -38.540184    -3.361462    -11.753107    -24.067163    12.258973    -13.113816    -6.295526    18.714710    35.474964    3.429242    7.683712    42.996777    41.529293    -4.079060    -26.662926    21.382826    -9.728301    -25.577240    -5.151074    -0.573805    -24.086245    -2.545884    -7.722672    18.953104    1.925365    5.274607    -5.548026    6.938302    0.000000    0.000000    0.000000    -5.371322    11.491376    1.704044    3.845742    24.368006    1.418378    3.828636    -4.173708    -2.158002    0.000000    0.000000    0.000000    
-4.675611    78.577271    -143.562241    2.677467    2.098841    -3.213451    -2.003803    -11.006540    0.662481    -1.118430    10.962600    0.962851    -2.189438    36.164387    -3.283712    -2.123750    12.319307    -3.933668    -21.643887    27.838781    4.213377    -21.409796    31.185566    -38.504868    -3.417765    -12.051630    -23.900511    12.449133    -13.452092    -6.524679    18.731348    35.541103    3.451964    7.492118    43.303986    41.739819    -4.305387    -26.910652    21.139341    -9.350771    -25.818220    -5.076292    -0.658293    -23.817007    -2.689075    -7.749881    19.133080    1.955211    5.556065    -5.451226    7.144596    0.000000    0.000000    0.000000    -5.425588    11.039540    1.591795    3.710423    25.527586    1.290763    3.168649    -2.992915    -1.689978    0.000000    0.000000    0.000000    
-4.636617    78.642128    -143.081970    2.703913    1.983565    -3.258143    -2.091217    -10.928721    0.685504    -1.155068    10.958768    0.996299    -2.158386    36.156231    -3.275005    -2.159437    12.372147    -3.918449    -21.690754    27.875563    4.223194    -21.430889    31.363529    -38.494606    -3.430384    -12.509060    -23.680164    12.525009    -13.944351    -6.873027    18.726967    35.574703    3.469154    7.719211    43.162655    41.678822    -4.142641    -26.746777    21.019121    -9.129042    -25.701084    -4.966478    -0.739908    -23.483370    -2.782063    -7.753132    19.327753    1.640274    5.793254    -5.332304    7.602328    0.000000    0.000000    0.000000    -5.457324    10.614546    1.455022    3.530221    26.723608    1.084385    2.409054    -1.853299    -1.170712    0.000000    0.000000    0.000000    
-4.589451    78.706337    -142.597488    2.748536    1.867228    -3.390748    -2.170303    -10.862695    0.761716    -1.186389    10.969193    1.081954    -2.193334    36.152294    -3.259887    -2.141634    12.407932    -3.908318    -21.755562    27.905657    4.249291    -21.392641    31.557384    -38.551575    -3.496030    -13.167665    -23.452147    12.589711    -14.621736    -6.990760    18.706656    35.658997    3.527929    8.114798    42.825325    41.472565    -3.875628    -26.482288    20.970598    -9.218169    -25.466679    -5.108418    -0.814166    -23.095877    -2.852414    -7.785845    19.481064    1.194559    5.706677    -5.279547    8.313549    0.000000    0.000000    0.000000    -5.567370    10.111071    1.395199    3.400571    27.994724    0.912181    3.482762    -0.723408    -0.654106    0.000000    0.000000    0.000000    
-4.547597    78.771057    -142.121506    2.773923    1.765709    -3.456502    -2.240432    -10.795446    0.807539    -1.220854    10.981095    1.136536    -2.181005    36.194504    -3.274341    -2.134603    12.316957    -3.923394    -21.772573    27.913197    4.230674    -21.454506    31.747559    -38.525433    -3.521567    -13.847751    -23.305407    12.484205    -15.294586    -7.017835    18.676445    35.694679    3.538394    8.275526    42.793163    41.449837    -3.761626    -26.339531    20.987354    -9.767417    -25.285583    -5.539268    -0.878132    -22.750872    -2.896854    -7.828988    19.683607    0.700840    5.791924    -5.382153    8.954822    0.000000    0.000000    0.000000    -5.639687    9.615821    1.314390    3.280403    29.200533    0.606077    3.849540    0.702361    -0.128931    0.000000    0.000000    0.000000    
-4.510826    78.833412    -141.664627    2.784435    1.686687    -3.556947    -2.278782    -10.739002    0.864205    -1.289816    10.958962    1.202076    -2.136007    36.171894    -3.266108    -2.174344    12.383866    -3.905385    -21.767200    27.883636    4.243845    -21.530151    31.945402    -38.493622    -3.585913    -14.623479    -23.148020    12.297804    -16.072750    -7.122977    18.662724    35.689117    3.582614    8.223632    43.002930    41.540260    -3.701120    -26.405060    20.895435    -9.649256    -25.377439    -5.439776    -0.932529    -22.439518    -2.864424    -7.817027    19.868137    0.667921    5.978727    -5.556943    8.966104    0.000000    0.000000    0.000000    -5.730030    9.082541    1.373747    3.360743    30.387842    0.131265    3.199784    1.913592    0.355579    0.000000    0.000000    0.000000    
-4.469164    78.888863    -141.192856    2.790540    1.639519    -3.635353    -2.327871    -10.702905    0.914939    -1.321544    10.928184    1.259399    -2.192241    36.199200    -3.243328    -2.089094    12.346651    -3.891319    -21.770351    27.885941    4.229455    -21.599598    32.159767    -38.499973    -3.613815    -15.483459    -22.948551    12.217179    -16.925322    -7.165302    18.632946    35.725525    3.553492    8.176371    43.057060    41.635059    -3.477495    -26.359991    20.946045    -9.494822    -25.372627    -5.464927    -0.980395    -22.168032    -2.756043    -7.803223    20.102989    0.458667    6.132538    -5.796087    9.025013    0.000000    0.000000    0.000000    -5.832075    8.400643    1.059432    3.212337    31.772156    0.036819    2.578784    3.172699    1.176460    0.000000    0.000000    0.000000    
-4.442509    78.942200    -140.716751    2.774323    1.513968    -3.706357    -2.401465    -10.569295    0.949221    -1.300874    10.861780    1.294952    -2.190566    36.316288    -3.259335    -2.103834    12.196395    -3.913736    -21.803694    27.885666    4.294938    -21.651924    32.431461    -38.600227    -3.514071    -16.348270    -22.725298    12.213710    -17.729889    -6.896463    18.584023    35.796856    3.621811    8.182148    43.188427    41.659962    -3.437000    -26.329374    20.940371    -9.628653    -25.319914    -5.765949    -0.991077    -21.767794    -2.653938    -7.810512    20.253296    0.243966    6.397882    -5.992097    9.100801    0.000000    0.000000    0.000000    -5.857297    7.866831    1.052289    3.143415    33.033192    -0.345024    2.549112    4.509283    1.670940    0.000000    0.000000    0.000000    
